<svg version="1.1" id="Layer_1" xmlns="http://www.w3.org/2000/svg" xmlns:xlink="http://www.w3.org/1999/xlink" x="0px" y="0px"
	 width="100%" viewBox="0 0 208 79" enable-background="new 0 0 208 79" xml:space="preserve">
<path fill="#FDFDFD" opacity="1.000000" stroke="none" 
	d="
M132.000000,80.000000 
	C88.000015,80.000000 44.500027,80.000000 1.000029,80.000000 
	C1.000019,53.666687 1.000019,27.333376 1.000010,1.000047 
	C70.333290,1.000031 139.666580,1.000031 208.999908,1.000016 
	C208.999939,27.333284 208.999939,53.666569 208.999969,79.999924 
	C183.500000,80.000000 158.000000,80.000000 132.000000,80.000000 
M151.694199,36.653786 
	C151.551193,35.667965 151.451538,34.673573 151.258545,33.697636 
	C149.222839,23.403471 139.301544,17.363411 128.987152,20.126045 
	C119.500450,22.666986 113.892700,33.038193 116.900917,42.478809 
	C119.655548,51.123604 126.838768,55.859474 135.982285,55.059090 
	C144.734085,54.292988 150.569763,47.764107 151.694199,36.653786 
M188.859451,54.219078 
	C190.475647,54.219078 192.091843,54.219078 194.170197,54.219078 
	C192.302567,43.287346 190.574799,32.844723 188.640228,22.440554 
	C188.475204,21.553089 187.034271,20.501009 186.010391,20.254238 
	C183.453110,19.637894 181.763184,20.510023 180.879913,23.395605 
	C178.933731,29.753735 176.593079,35.991127 173.949448,43.615925 
	C171.520798,36.497986 169.268646,30.957203 167.787247,25.217487 
	C166.618988,20.691010 164.508530,19.017378 159.643494,20.744457 
	C157.723602,31.579643 155.765152,42.632458 153.745804,54.028999 
	C156.029541,54.028999 157.781357,54.028999 159.991776,54.028999 
	C161.202133,47.724495 162.418289,41.389740 163.634460,35.054981 
	C166.337067,40.421864 167.985687,45.814228 170.108414,51.013016 
	C170.678070,52.408150 172.694992,54.057449 174.042007,54.052593 
	C175.391495,54.047741 177.390808,52.388996 177.961914,50.988800 
	C180.038086,45.898544 181.635193,40.612896 183.412964,35.400928 
	C183.757385,35.449310 184.101807,35.497696 184.446243,35.546078 
	C185.651398,41.644043 186.856567,47.742008 188.859451,54.219078 
M38.667995,32.319607 
	C35.677490,22.136379 28.988731,18.488312 12.295319,20.859520 
	C12.295319,31.951109 12.295319,43.029690 12.295319,54.054874 
	C17.083496,54.054874 21.571424,54.197971 26.046558,54.019749 
	C32.050987,53.780624 36.233501,50.441059 37.877728,44.930122 
	C38.980167,41.235096 38.584980,37.093235 38.667995,32.319607 
M99.004028,52.290028 
	C99.004028,48.413696 99.004028,44.537365 99.004028,40.661034 
	C101.731323,43.572762 103.819969,46.563057 105.048302,49.872654 
	C106.777008,54.530479 109.770065,54.948402 114.177544,53.766018 
	C111.593315,48.760342 109.192009,44.108986 106.807228,39.489647 
	C107.438354,38.948257 107.770340,38.555176 108.190628,38.319691 
	C112.411232,35.954880 113.753914,32.194935 112.776154,27.745838 
	C111.774033,23.185917 108.686745,20.600777 103.918587,20.445108 
	C100.312271,20.327370 96.699028,20.421787 92.824448,20.421787 
	C92.824448,31.701408 92.824448,42.768089 92.824448,54.616833 
	C95.063255,54.107635 96.998817,53.667408 99.004028,52.290028 
M50.578598,20.168261 
	C48.160355,20.168261 45.742107,20.168261 43.453957,20.168261 
	C43.453957,31.979345 43.453957,43.023357 43.453957,53.887836 
	C49.893059,53.887836 55.957687,53.887836 62.201126,53.887836 
	C62.098804,51.857967 62.017277,50.240543 61.904484,48.002922 
	C57.800331,48.002922 53.921741,48.002922 50.024509,48.002922 
	C50.024509,44.752281 50.024509,42.140251 50.024509,38.991833 
	C54.088326,38.991833 57.987183,38.991833 61.861645,38.991833 
	C61.861645,36.704636 61.861645,34.960899 61.861645,32.740341 
	C57.839508,32.740341 54.091221,32.740341 50.214943,32.740341 
	C50.214943,30.373379 50.214943,28.503010 50.214943,26.184708 
	C54.329483,26.184708 58.079910,26.184708 61.791756,26.184708 
	C61.791756,23.991018 61.791756,22.271013 61.791756,20.168282 
	C58.145103,20.168282 54.842972,20.168282 50.578598,20.168261 
M69.822433,20.177891 
	C69.218781,20.963724 68.098534,21.743755 68.089630,22.536268 
	C67.972290,32.984428 68.011482,43.434345 68.011482,53.889221 
	C70.447586,53.889221 72.480965,53.889221 74.673599,53.889221 
	C74.673599,51.311707 74.673599,49.151001 74.673599,46.990295 
	C74.673599,44.724892 74.673599,42.459488 74.673599,40.145428 
	C76.627151,39.999126 77.954819,39.978580 79.257782,39.788586 
	C85.165993,38.927082 88.688248,35.217384 88.649284,29.965622 
	C88.608215,24.430380 85.401833,21.068758 79.231018,20.413136 
	C76.426872,20.115210 73.578545,20.233093 69.822433,20.177891 
z"/>
<path fill="#04723E" opacity="1.000000" stroke="none" 
	d="
M151.697800,37.063251 
	C150.569763,47.764107 144.734085,54.292988 135.982285,55.059090 
	C126.838768,55.859474 119.655548,51.123604 116.900917,42.478809 
	C113.892700,33.038193 119.500450,22.666986 128.987152,20.126045 
	C139.301544,17.363411 149.222839,23.403471 151.258545,33.697636 
	C151.451538,34.673573 151.551193,35.667965 151.697800,37.063251 
z"/>
<path fill="#2D2A2A" opacity="1.000000" stroke="none" 
	d="
M188.460602,54.029526 
	C186.856567,47.742008 185.651398,41.644043 184.446243,35.546078 
	C184.101807,35.497696 183.757385,35.449310 183.412964,35.400928 
	C181.635193,40.612896 180.038086,45.898544 177.961914,50.988800 
	C177.390808,52.388996 175.391495,54.047741 174.042007,54.052593 
	C172.694992,54.057449 170.678070,52.408150 170.108414,51.013016 
	C167.985687,45.814228 166.337067,40.421864 163.634460,35.054981 
	C162.418289,41.389740 161.202133,47.724495 159.991776,54.028999 
	C157.781357,54.028999 156.029541,54.028999 153.745804,54.028999 
	C155.765152,42.632458 157.723602,31.579643 159.643494,20.744457 
	C164.508530,19.017378 166.618988,20.691010 167.787247,25.217487 
	C169.268646,30.957203 171.520798,36.497986 173.949448,43.615925 
	C176.593079,35.991127 178.933731,29.753735 180.879913,23.395605 
	C181.763184,20.510023 183.453110,19.637894 186.010391,20.254238 
	C187.034271,20.501009 188.475204,21.553089 188.640228,22.440554 
	C190.574799,32.844723 192.302567,43.287346 194.170197,54.219078 
	C192.091843,54.219078 190.475647,54.219078 188.460602,54.029526 
z"/>
<path fill="#292626" opacity="1.000000" stroke="none" 
	d="
M38.763947,32.735458 
	C38.584980,37.093235 38.980167,41.235096 37.877728,44.930122 
	C36.233501,50.441059 32.050987,53.780624 26.046558,54.019749 
	C21.571424,54.197971 17.083496,54.054874 12.295319,54.054874 
	C12.295319,43.029690 12.295319,31.951109 12.295319,20.859520 
	C28.988731,18.488312 35.677490,22.136379 38.763947,32.735458 
M19.752283,48.077187 
	C24.728470,48.313557 29.606499,48.311001 31.877945,42.592701 
	C33.608086,38.237114 33.273415,33.952068 30.460829,30.263683 
	C27.527824,26.417376 23.218039,26.236309 18.913519,26.674337 
	C18.913519,33.917953 18.913519,40.834923 19.752283,48.077187 
z"/>
<path fill="#2B2828" opacity="1.000000" stroke="none" 
	d="
M98.969208,52.758606 
	C96.998817,53.667408 95.063255,54.107635 92.824448,54.616833 
	C92.824448,42.768089 92.824448,31.701408 92.824448,20.421787 
	C96.699028,20.421787 100.312271,20.327370 103.918587,20.445108 
	C108.686745,20.600777 111.774033,23.185917 112.776154,27.745838 
	C113.753914,32.194935 112.411232,35.954880 108.190628,38.319691 
	C107.770340,38.555176 107.438354,38.948257 106.807228,39.489647 
	C109.192009,44.108986 111.593315,48.760342 114.177544,53.766018 
	C109.770065,54.948402 106.777008,54.530479 105.048302,49.872654 
	C103.819969,46.563057 101.731323,43.572762 99.004028,40.661034 
	C99.004028,44.537365 99.004028,48.413696 98.969208,52.758606 
M103.688362,33.299950 
	C104.617142,31.867546 105.545929,30.435143 106.474709,29.002733 
	C104.271393,27.906088 102.068069,26.809443 99.126205,25.345205 
	C99.126205,28.893785 99.126205,30.841413 99.126205,33.215149 
	C100.401276,33.276924 101.655975,33.337715 103.688362,33.299950 
z"/>
<path fill="#2D2A2A" opacity="1.000000" stroke="none" 
	d="
M51.059719,20.168270 
	C54.842972,20.168282 58.145103,20.168282 61.791756,20.168282 
	C61.791756,22.271013 61.791756,23.991018 61.791756,26.184708 
	C58.079910,26.184708 54.329483,26.184708 50.214943,26.184708 
	C50.214943,28.503010 50.214943,30.373379 50.214943,32.740341 
	C54.091221,32.740341 57.839508,32.740341 61.861645,32.740341 
	C61.861645,34.960899 61.861645,36.704636 61.861645,38.991833 
	C57.987183,38.991833 54.088326,38.991833 50.024509,38.991833 
	C50.024509,42.140251 50.024509,44.752281 50.024509,48.002922 
	C53.921741,48.002922 57.800331,48.002922 61.904484,48.002922 
	C62.017277,50.240543 62.098804,51.857967 62.201126,53.887836 
	C55.957687,53.887836 49.893059,53.887836 43.453957,53.887836 
	C43.453957,43.023357 43.453957,31.979345 43.453957,20.168261 
	C45.742107,20.168261 48.160355,20.168261 51.059719,20.168270 
z"/>
<path fill="#2F2C2C" opacity="1.000000" stroke="none" 
	d="
M70.286346,20.170126 
	C73.578545,20.233093 76.426872,20.115210 79.231018,20.413136 
	C85.401833,21.068758 88.608215,24.430380 88.649284,29.965622 
	C88.688248,35.217384 85.165993,38.927082 79.257782,39.788586 
	C77.954819,39.978580 76.627151,39.999126 74.673599,40.145428 
	C74.673599,42.459488 74.673599,44.724892 74.673599,46.990295 
	C74.673599,49.151001 74.673599,51.311707 74.673599,53.889221 
	C72.480965,53.889221 70.447586,53.889221 68.011482,53.889221 
	C68.011482,43.434345 67.972290,32.984428 68.089630,22.536268 
	C68.098534,21.743755 69.218781,20.963724 70.286346,20.170126 
M77.963669,26.535471 
	C71.767601,26.411884 75.681458,30.639078 74.789368,32.798042 
	C75.072083,33.216648 75.354805,33.635254 75.637527,34.053856 
	C77.756241,33.080193 79.874954,32.106529 81.993668,31.132870 
	C80.922684,29.649950 79.851700,28.167032 77.963669,26.535471 
z"/>
<path fill="#F2F2F2" opacity="1.000000" stroke="none" 
	d="
M19.332901,47.914539 
	C18.913519,40.834923 18.913519,33.917953 18.913519,26.674337 
	C23.218039,26.236309 27.527824,26.417376 30.460829,30.263683 
	C33.273415,33.952068 33.608086,38.237114 31.877945,42.592701 
	C29.606499,48.311001 24.728470,48.313557 19.332901,47.914539 
z"/>
<path fill="#E5E4E4" opacity="1.000000" stroke="none" 
	d="
M103.299515,33.349228 
	C101.655975,33.337715 100.401276,33.276924 99.126205,33.215149 
	C99.126205,30.841413 99.126205,28.893785 99.126205,25.345205 
	C102.068069,26.809443 104.271393,27.906088 106.474716,29.002735 
	C105.545929,30.435143 104.617142,31.867546 103.299515,33.349228 
z"/>
<path fill="#F2F2F2" opacity="1.000000" stroke="none" 
	d="
M78.372192,26.609793 
	C79.851700,28.167032 80.922684,29.649950 81.993668,31.132870 
	C79.874954,32.106529 77.756241,33.080193 75.637527,34.053856 
	C75.354805,33.635254 75.072083,33.216648 74.789368,32.798042 
	C75.681458,30.639078 71.767601,26.411884 78.372192,26.609793 
z"/>
</svg>